<svg width="816" height="122" viewBox="0 0 816 122" fill="none" xmlns="http://www.w3.org/2000/svg">
<path d="M89.2114 27.7637C90.0818 25.317 89.9446 22.6247 88.83 20.2792C87.7154 17.9336 85.7147 16.1269 83.268 15.2565C80.8213 14.3861 78.1291 14.5233 75.7835 15.6379C73.4379 16.7525 71.6312 18.7532 70.7608 21.1999C70.5867 21.6892 70.6142 22.2277 70.8371 22.6968C71.06 23.1659 71.4602 23.5272 71.9495 23.7013C72.4388 23.8754 72.9773 23.848 73.4464 23.6251C73.9155 23.4021 74.2768 23.002 74.4509 22.5127C74.8404 21.4179 75.5457 20.4632 76.4778 19.7693C77.4098 19.0755 78.5267 18.6735 79.6871 18.6144C80.8476 18.5553 81.9995 18.8416 82.9973 19.4371C83.995 20.0327 84.7937 20.9107 85.2925 21.9602C85.7912 23.0097 85.9675 24.1835 85.7991 25.3332C85.6307 26.4829 85.1251 27.5569 84.3464 28.4193C83.5676 29.2816 82.5506 29.8937 81.424 30.1781C80.2974 30.4625 79.1117 30.4064 78.017 30.017C77.5276 29.8429 76.9892 29.8703 76.5201 30.0932C76.0509 30.3162 75.6896 30.7163 75.5155 31.2056L74.2028 34.8958C74.0287 35.3851 74.0561 35.9235 74.279 36.3927C74.502 36.8618 74.9021 37.2231 75.3914 37.3972C75.8808 37.5713 76.4192 37.5438 76.8883 37.3209C77.3574 37.098 77.7188 36.6979 77.8929 36.2085L78.6149 34.179C80.8499 34.4949 83.1255 34.0289 85.0565 32.8599C86.9875 31.6909 88.4552 29.8906 89.2114 27.7637Z" fill="black"/>
<path d="M72.7659 44.7781C73.7849 45.1406 74.9049 44.6085 75.2674 43.5895C75.6299 42.5705 75.0977 41.4505 74.0787 41.088C73.0597 40.7255 71.9398 41.2577 71.5773 42.2767C71.2148 43.2957 71.7469 44.4156 72.7659 44.7781Z" fill="black"/>
<path opacity="0.2" d="M72.625 59.75L41.5 70.125L10.375 59.75L41.5 49.375L72.625 59.75Z" fill="black"/>
<path d="M73.4355 57.286L42.3105 46.911C41.7824 46.7484 41.2176 46.7484 40.6894 46.911L9.59684 57.286H9.53199L9.20777 57.4481H9.17535L8.85113 57.6426C8.85113 57.675 8.81871 57.675 8.78629 57.7074L8.52691 57.9344L8.29996 58.1938C8.29996 58.2262 8.26754 58.2262 8.26754 58.2586L8.07301 58.5504C8.07301 58.5828 8.07301 58.5828 8.04058 58.6153L7.9109 58.9071L7.81363 59.2637V59.361C7.78165 59.488 7.7707 59.6194 7.78121 59.75V85.6875C7.78121 86.3754 8.05448 87.0352 8.5409 87.5216C9.02732 88.008 9.68705 88.2813 10.375 88.2813C11.0629 88.2813 11.7226 88.008 12.209 87.5216C12.6954 87.0352 12.9687 86.3754 12.9687 85.6875V63.3488L23.8625 66.9801C21.8159 70.256 20.7369 74.0436 20.75 77.9063C20.7512 81.4192 21.6442 84.8743 23.3454 87.9478C25.0466 91.0214 27.5003 93.6127 30.4765 95.4789C24.2917 97.8186 19.0117 102.065 15.4004 107.605C15.0323 108.187 14.9075 108.89 15.0531 109.563C15.1986 110.236 15.6028 110.826 16.1785 111.204C16.461 111.391 16.7778 111.52 17.1107 111.584C17.4435 111.648 17.7857 111.645 18.1174 111.575C18.4491 111.506 18.7638 111.372 19.0432 111.18C19.3225 110.988 19.561 110.743 19.7449 110.458C22.0991 106.831 25.3225 103.851 29.122 101.788C32.9214 99.7245 37.1764 98.6437 41.5 98.6437C45.8235 98.6437 50.0785 99.7245 53.8779 101.788C57.6774 103.851 60.9008 106.831 63.255 110.458C63.4918 110.817 63.8144 111.112 64.1936 111.316C64.5728 111.52 64.9968 111.626 65.4273 111.625C65.9242 111.63 66.4107 111.483 66.8214 111.204C67.3971 110.826 67.8013 110.236 67.9468 109.563C68.0924 108.89 67.9677 108.187 67.5996 107.605C63.9882 102.065 58.7082 97.8186 52.5234 95.4789C55.4996 93.6127 57.9533 91.0214 59.6545 87.9478C61.3557 84.8743 62.2488 81.4192 62.25 77.9063C62.263 74.0436 61.1841 70.256 59.1375 66.9801L73.4355 62.2141C73.9544 62.0435 74.4063 61.7135 74.7266 61.271C75.0469 60.8286 75.2194 60.2963 75.2194 59.75C75.2194 59.2038 75.0469 58.6715 74.7266 58.229C74.4063 57.7866 73.9544 57.4565 73.4355 57.286ZM57.0625 77.9063C57.0625 82.0337 55.4228 85.9921 52.5043 88.9106C49.5858 91.8292 45.6274 93.4688 41.5 93.4688C37.3725 93.4688 33.4141 91.8292 30.4956 88.9106C27.5771 85.9921 25.9375 82.0337 25.9375 77.9063C25.9437 74.5854 26.999 71.3514 28.9527 68.666L40.6894 72.5891C41.2159 72.7623 41.784 72.7623 42.3105 72.5891L54.0472 68.666C56.0009 71.3514 57.0562 74.5854 57.0625 77.9063ZM54.0472 63.2192H54.0148L41.5 67.4016L28.9851 63.2192H28.9527L18.5777 59.75L41.5 52.0985L64.4222 59.75L54.0472 63.2192Z" fill="black"/>
<path d="M682.074 82.0607C682.66 81.4749 682.66 80.5251 682.074 79.9393L672.528 70.3934C671.942 69.8076 670.993 69.8076 670.407 70.3934C669.821 70.9792 669.821 71.9289 670.407 72.5147L678.892 81L670.407 89.4853C669.821 90.0711 669.821 91.0208 670.407 91.6066C670.993 92.1924 671.942 92.1924 672.528 91.6066L682.074 82.0607ZM533 82.5H681.014V79.5H533V82.5Z" fill="black"/>
<path d="M194.061 59.0607C194.646 58.4749 194.646 57.5251 194.061 56.9393L184.515 47.3934C183.929 46.8076 182.979 46.8076 182.393 47.3934C181.808 47.9792 181.808 48.9289 182.393 49.5147L190.879 58L182.393 66.4853C181.808 67.0711 181.808 68.0208 182.393 68.6066C182.979 69.1924 183.929 69.1924 184.515 68.6066L194.061 59.0607ZM119 59.5H193V56.5H119V59.5Z" fill="black"/>
<path d="M194.061 103.061C194.646 102.475 194.646 101.525 194.061 100.939L184.515 91.3934C183.929 90.8076 182.979 90.8076 182.393 91.3934C181.808 91.9792 181.808 92.9289 182.393 93.5147L190.879 102L182.393 110.485C181.808 111.071 181.808 112.021 182.393 112.607C182.979 113.192 183.929 113.192 184.515 112.607L194.061 103.061ZM119 103.5H193V100.5H119V103.5Z" fill="black"/>
<path d="M456.585 98.8934C455.056 95.2716 452.838 91.9818 450.052 89.2073C447.276 86.4248 443.987 84.2063 440.366 82.6743C440.334 82.6581 440.302 82.65 440.269 82.6338C445.319 78.9863 448.602 73.045 448.602 66.3418C448.602 55.2373 439.604 46.2402 428.5 46.2402C417.395 46.2402 408.398 55.2373 408.398 66.3418C408.398 73.045 411.681 78.9863 416.731 82.6419C416.698 82.6581 416.666 82.6662 416.634 82.6824C413.002 84.2144 409.744 86.4109 406.948 89.2154C404.165 91.9921 401.946 95.2813 400.415 98.9015C398.91 102.446 398.098 106.245 398.023 110.095C398.021 110.182 398.036 110.268 398.068 110.348C398.1 110.429 398.147 110.502 398.207 110.564C398.268 110.626 398.34 110.675 398.42 110.709C398.5 110.743 398.585 110.76 398.672 110.76H403.535C403.892 110.76 404.175 110.476 404.184 110.128C404.346 103.87 406.858 98.0099 411.3 93.5681C415.896 88.9723 421.999 86.4434 428.5 86.4434C435.001 86.4434 441.104 88.9723 445.7 93.5681C450.142 98.0099 452.654 103.87 452.816 110.128C452.824 110.484 453.108 110.76 453.465 110.76H458.328C458.415 110.76 458.5 110.743 458.58 110.709C458.66 110.675 458.732 110.626 458.792 110.564C458.853 110.502 458.9 110.429 458.932 110.348C458.964 110.268 458.979 110.182 458.977 110.095C458.895 106.221 458.093 102.452 456.585 98.8934ZM428.5 80.2832C424.78 80.2832 421.278 78.8323 418.644 76.198C416.009 73.5638 414.559 70.0622 414.559 66.3418C414.559 62.6214 416.009 59.1198 418.644 56.4855C421.278 53.8513 424.78 52.4004 428.5 52.4004C432.22 52.4004 435.722 53.8513 438.356 56.4855C440.99 59.1198 442.441 62.6214 442.441 66.3418C442.441 70.0622 440.99 73.5638 438.356 76.198C435.722 78.8323 432.22 80.2832 428.5 80.2832Z" fill="black"/>
<path opacity="0.2" d="M782.625 57.75L751.5 68.125L720.375 57.75L751.5 47.375L782.625 57.75Z" fill="black"/>
<path d="M783.436 55.286L752.311 44.911C751.782 44.7484 751.218 44.7484 750.689 44.911L719.597 55.286H719.532L719.208 55.4481H719.175L718.851 55.6426C718.851 55.675 718.819 55.675 718.786 55.7074L718.527 55.9344L718.3 56.1938C718.3 56.2262 718.268 56.2262 718.268 56.2586L718.073 56.5504C718.073 56.5828 718.073 56.5828 718.041 56.6153L717.911 56.9071L717.814 57.2637V57.361C717.782 57.488 717.771 57.6194 717.781 57.75V83.6875C717.781 84.3754 718.054 85.0352 718.541 85.5216C719.027 86.008 719.687 86.2813 720.375 86.2813C721.063 86.2813 721.723 86.008 722.209 85.5216C722.695 85.0352 722.969 84.3754 722.969 83.6875V61.3488L733.862 64.9801C731.816 68.256 730.737 72.0436 730.75 75.9063C730.751 79.4192 731.644 82.8743 733.345 85.9478C735.047 89.0214 737.5 91.6127 740.477 93.4789C734.292 95.8186 729.012 100.065 725.4 105.605C725.032 106.187 724.908 106.89 725.053 107.563C725.199 108.236 725.603 108.826 726.178 109.204C726.461 109.391 726.778 109.52 727.111 109.584C727.443 109.648 727.786 109.645 728.117 109.575C728.449 109.506 728.764 109.372 729.043 109.18C729.323 108.988 729.561 108.743 729.745 108.458C732.099 104.831 735.323 101.851 739.122 99.7878C742.921 97.7245 747.176 96.6437 751.5 96.6437C755.824 96.6437 760.078 97.7245 763.878 99.7878C767.677 101.851 770.901 104.831 773.255 108.458C773.492 108.817 773.814 109.112 774.194 109.316C774.573 109.52 774.997 109.626 775.427 109.625C775.924 109.63 776.411 109.483 776.821 109.204C777.397 108.826 777.801 108.236 777.947 107.563C778.092 106.89 777.968 106.187 777.6 105.605C773.988 100.065 768.708 95.8186 762.523 93.4789C765.5 91.6127 767.953 89.0214 769.655 85.9478C771.356 82.8743 772.249 79.4192 772.25 75.9063C772.263 72.0436 771.184 68.256 769.137 64.9801L783.436 60.2141C783.954 60.0435 784.406 59.7135 784.727 59.271C785.047 58.8286 785.219 58.2963 785.219 57.75C785.219 57.2038 785.047 56.6715 784.727 56.229C784.406 55.7866 783.954 55.4565 783.436 55.286V55.286ZM767.062 75.9063C767.062 80.0337 765.423 83.9921 762.504 86.9106C759.586 89.8292 755.627 91.4688 751.5 91.4688C747.373 91.4688 743.414 89.8292 740.496 86.9106C737.577 83.9921 735.937 80.0337 735.937 75.9063C735.944 72.5854 736.999 69.3514 738.953 66.666L750.689 70.5891C751.216 70.7623 751.784 70.7623 752.311 70.5891L764.047 66.666C766.001 69.3514 767.056 72.5854 767.062 75.9063ZM764.047 61.2192H764.015L751.5 65.4016L738.985 61.2192H738.953L728.578 57.75L751.5 50.0985L774.422 57.75L764.047 61.2192Z" fill="black"/>
<path d="M782 29.3836L787.824 38.4932V46.1644L792.059 50L796 51.5L800.529 50L804 46.1644V38.4932L808.5 33.5L809 29.3836V22.6712L806.5 17.5L801 14.5L796 13.5H792.5L787.824 15L782.5 23L782 29.3836Z" fill="#F8E73A" stroke="black"/>
<path d="M795.644 52.3125H796.217C798.622 52.3098 800.927 51.3533 802.627 49.6529C804.328 47.9524 805.284 45.647 805.287 43.2422V38.5649C807.028 37.167 808.433 35.3957 809.398 33.382C810.363 31.3682 810.863 29.1634 810.861 26.9305C810.861 18.6978 804.163 12 795.931 12C787.698 12 781 18.6978 781 26.9305C780.998 29.1634 781.498 31.3682 782.463 33.382C783.428 35.3958 784.833 37.167 786.574 38.5649V43.2422C786.577 45.6469 787.533 47.9524 789.234 49.6529C790.934 51.3533 793.24 52.3098 795.644 52.3125ZM796.217 49.625H795.644C794.366 49.6234 793.117 49.2384 792.06 48.5198C791.002 47.8011 790.185 46.7819 789.712 45.5938H802.149C801.677 46.7819 800.859 47.8012 799.801 48.5198C798.744 49.2384 797.495 49.6234 796.217 49.625ZM802.6 42.9062H789.262V39.5469H802.6V42.9062ZM783.687 26.9305C783.687 20.1801 789.18 14.6875 795.931 14.6875C802.681 14.6875 808.174 20.1801 808.174 26.9305C808.17 28.857 807.713 30.7556 806.84 32.4732C805.968 34.1908 804.703 35.6792 803.15 36.8186L803.094 36.8594H788.767L788.711 36.8186C787.157 35.6792 785.893 34.1907 785.021 32.4731C784.148 30.7556 783.692 28.857 783.687 26.9305Z" fill="black"/>
<path d="M239.184 63V45.5455H249.65V47.4205H241.298V53.3182H248.866V55.1932H241.298V63H239.184ZM257.525 63.2727C256.263 63.2727 255.175 62.9943 254.261 62.4375C253.352 61.875 252.65 61.0909 252.156 60.0852C251.667 59.0739 251.423 57.8977 251.423 56.5568C251.423 55.2159 251.667 54.0341 252.156 53.0114C252.65 51.983 253.337 51.1818 254.218 50.608C255.104 50.0284 256.138 49.7386 257.32 49.7386C258.002 49.7386 258.675 49.8523 259.34 50.0795C260.005 50.3068 260.61 50.6761 261.156 51.1875C261.701 51.6932 262.136 52.3636 262.46 53.1989C262.783 54.0341 262.945 55.0625 262.945 56.2841V57.1364H252.854V55.3977H260.9C260.9 54.6591 260.752 54 260.457 53.4205C260.167 52.8409 259.752 52.3835 259.212 52.0483C258.678 51.7131 258.048 51.5455 257.32 51.5455C256.519 51.5455 255.826 51.7443 255.241 52.142C254.661 52.5341 254.215 53.0455 253.903 53.6761C253.59 54.3068 253.434 54.983 253.434 55.7045V56.8636C253.434 57.8523 253.604 58.6903 253.945 59.3778C254.292 60.0597 254.772 60.5795 255.386 60.9375C255.999 61.2898 256.712 61.4659 257.525 61.4659C258.053 61.4659 258.531 61.392 258.957 61.2443C259.388 61.0909 259.761 60.8636 260.073 60.5625C260.386 60.2557 260.627 59.875 260.798 59.4205L262.741 59.9659C262.536 60.625 262.192 61.2045 261.71 61.7045C261.227 62.1989 260.63 62.5852 259.92 62.8636C259.21 63.1364 258.411 63.2727 257.525 63.2727ZM271.494 63.2727C270.232 63.2727 269.144 62.9943 268.229 62.4375C267.32 61.875 266.619 61.0909 266.124 60.0852C265.636 59.0739 265.391 57.8977 265.391 56.5568C265.391 55.2159 265.636 54.0341 266.124 53.0114C266.619 51.983 267.306 51.1818 268.187 50.608C269.073 50.0284 270.107 49.7386 271.289 49.7386C271.971 49.7386 272.644 49.8523 273.309 50.0795C273.974 50.3068 274.579 50.6761 275.124 51.1875C275.67 51.6932 276.104 52.3636 276.428 53.1989C276.752 54.0341 276.914 55.0625 276.914 56.2841V57.1364H266.823V55.3977H274.869C274.869 54.6591 274.721 54 274.425 53.4205C274.136 52.8409 273.721 52.3835 273.181 52.0483C272.647 51.7131 272.016 51.5455 271.289 51.5455C270.488 51.5455 269.795 51.7443 269.21 52.142C268.63 52.5341 268.184 53.0455 267.871 53.6761C267.559 54.3068 267.403 54.983 267.403 55.7045V56.8636C267.403 57.8523 267.573 58.6903 267.914 59.3778C268.261 60.0597 268.741 60.5795 269.354 60.9375C269.968 61.2898 270.681 61.4659 271.494 61.4659C272.022 61.4659 272.499 61.392 272.925 61.2443C273.357 61.0909 273.729 60.8636 274.042 60.5625C274.354 60.2557 274.596 59.875 274.766 59.4205L276.71 59.9659C276.505 60.625 276.161 61.2045 275.678 61.7045C275.195 62.1989 274.599 62.5852 273.888 62.8636C273.178 63.1364 272.38 63.2727 271.494 63.2727ZM284.917 63.2727C283.826 63.2727 282.863 62.9972 282.028 62.446C281.192 61.8892 280.539 61.1051 280.067 60.0938C279.596 59.0767 279.36 57.875 279.36 56.4886C279.36 55.1136 279.596 53.9205 280.067 52.9091C280.539 51.8977 281.195 51.1165 282.036 50.5653C282.877 50.0142 283.849 49.7386 284.951 49.7386C285.803 49.7386 286.477 49.8807 286.971 50.1648C287.471 50.4432 287.852 50.7614 288.113 51.1193C288.38 51.4716 288.587 51.7614 288.735 51.9886H288.906V45.5455H290.917V63H288.974V60.9886H288.735C288.587 61.2273 288.377 61.5284 288.104 61.892C287.832 62.25 287.442 62.571 286.937 62.8551C286.431 63.1335 285.758 63.2727 284.917 63.2727ZM285.19 61.4659C285.996 61.4659 286.678 61.2557 287.235 60.8352C287.792 60.4091 288.215 59.821 288.505 59.071C288.795 58.3153 288.94 57.4432 288.94 56.4545C288.94 55.4773 288.798 54.6222 288.513 53.8892C288.229 53.1506 287.809 52.5767 287.252 52.1676C286.695 51.7528 286.008 51.5455 285.19 51.5455C284.337 51.5455 283.627 51.7642 283.059 52.2017C282.496 52.6335 282.073 53.2216 281.789 53.9659C281.511 54.7045 281.371 55.5341 281.371 56.4545C281.371 57.3864 281.513 58.233 281.798 58.9943C282.087 59.75 282.513 60.3523 283.076 60.8011C283.644 61.2443 284.349 61.4659 285.19 61.4659ZM295.153 63V45.5455H297.164V51.9886H297.335C297.482 51.7614 297.687 51.4716 297.948 51.1193C298.215 50.7614 298.596 50.4432 299.09 50.1648C299.59 49.8807 300.266 49.7386 301.119 49.7386C302.221 49.7386 303.192 50.0142 304.033 50.5653C304.874 51.1165 305.531 51.8977 306.002 52.9091C306.474 53.9205 306.71 55.1136 306.71 56.4886C306.71 57.875 306.474 59.0767 306.002 60.0938C305.531 61.1051 304.877 61.8892 304.042 62.446C303.207 62.9972 302.244 63.2727 301.153 63.2727C300.312 63.2727 299.638 63.1335 299.133 62.8551C298.627 62.571 298.238 62.25 297.965 61.892C297.692 61.5284 297.482 61.2273 297.335 60.9886H297.096V63H295.153ZM297.13 56.4545C297.13 57.4432 297.275 58.3153 297.565 59.071C297.854 59.821 298.278 60.4091 298.835 60.8352C299.391 61.2557 300.073 61.4659 300.88 61.4659C301.721 61.4659 302.423 61.2443 302.985 60.8011C303.553 60.3523 303.979 59.75 304.263 58.9943C304.553 58.233 304.698 57.3864 304.698 56.4545C304.698 55.5341 304.556 54.7045 304.272 53.9659C303.994 53.2216 303.57 52.6335 303.002 52.2017C302.44 51.7642 301.732 51.5455 300.88 51.5455C300.062 51.5455 299.374 51.7528 298.817 52.1676C298.261 52.5767 297.84 53.1506 297.556 53.8892C297.272 54.6222 297.13 55.4773 297.13 56.4545ZM313.638 63.3068C312.809 63.3068 312.056 63.1506 311.38 62.8381C310.704 62.5199 310.167 62.0625 309.769 61.4659C309.371 60.8636 309.173 60.1364 309.173 59.2841C309.173 58.5341 309.32 57.9261 309.616 57.4602C309.911 56.9886 310.306 56.6193 310.8 56.3523C311.295 56.0852 311.84 55.8864 312.437 55.7557C313.039 55.6193 313.644 55.5114 314.252 55.4318C315.048 55.3295 315.692 55.2528 316.187 55.2017C316.687 55.1449 317.05 55.0511 317.278 54.9205C317.511 54.7898 317.627 54.5625 317.627 54.2386V54.1705C317.627 53.3295 317.397 52.6761 316.937 52.2102C316.482 51.7443 315.792 51.5114 314.866 51.5114C313.906 51.5114 313.153 51.7216 312.607 52.142C312.062 52.5625 311.678 53.0114 311.457 53.4886L309.548 52.8068C309.888 52.0114 310.343 51.392 310.911 50.9489C311.485 50.5 312.11 50.1875 312.786 50.0114C313.468 49.8295 314.138 49.7386 314.798 49.7386C315.218 49.7386 315.701 49.7898 316.246 49.892C316.798 49.9886 317.329 50.1903 317.84 50.4972C318.357 50.804 318.786 51.267 319.127 51.8864C319.468 52.5057 319.638 53.3352 319.638 54.375V63H317.627V61.2273H317.525C317.388 61.5114 317.161 61.8153 316.843 62.1392C316.525 62.4631 316.102 62.7386 315.573 62.9659C315.045 63.1932 314.4 63.3068 313.638 63.3068ZM313.945 61.5C314.741 61.5 315.411 61.3438 315.957 61.0312C316.508 60.7188 316.923 60.3153 317.201 59.821C317.485 59.3267 317.627 58.8068 317.627 58.2614V56.4205C317.542 56.5227 317.354 56.6165 317.065 56.7017C316.781 56.7812 316.451 56.8523 316.076 56.9148C315.707 56.9716 315.346 57.0227 314.994 57.0682C314.647 57.108 314.366 57.142 314.15 57.1705C313.627 57.2386 313.138 57.3494 312.684 57.5028C312.235 57.6506 311.871 57.875 311.593 58.1761C311.32 58.4716 311.184 58.875 311.184 59.3864C311.184 60.0852 311.442 60.6136 311.96 60.9716C312.482 61.3239 313.144 61.5 313.945 61.5ZM328.628 63.2727C327.401 63.2727 326.344 62.983 325.457 62.4034C324.571 61.8239 323.889 61.0256 323.412 60.0085C322.935 58.9915 322.696 57.8295 322.696 56.5227C322.696 55.1932 322.94 54.0199 323.429 53.0028C323.923 51.9801 324.611 51.1818 325.491 50.608C326.378 50.0284 327.412 49.7386 328.594 49.7386C329.514 49.7386 330.344 49.9091 331.082 50.25C331.821 50.5909 332.426 51.0682 332.898 51.6818C333.369 52.2955 333.662 53.0114 333.776 53.8295H331.764C331.611 53.233 331.27 52.7045 330.741 52.2443C330.219 51.7784 329.514 51.5455 328.628 51.5455C327.844 51.5455 327.156 51.75 326.565 52.1591C325.98 52.5625 325.523 53.1335 325.193 53.8722C324.869 54.6051 324.707 55.4659 324.707 56.4545C324.707 57.4659 324.866 58.3466 325.185 59.0966C325.509 59.8466 325.963 60.429 326.548 60.8438C327.139 61.2585 327.832 61.4659 328.628 61.4659C329.151 61.4659 329.625 61.375 330.051 61.1932C330.477 61.0114 330.838 60.75 331.134 60.4091C331.429 60.0682 331.639 59.6591 331.764 59.1818H333.776C333.662 59.9545 333.381 60.6506 332.932 61.2699C332.489 61.8835 331.901 62.3722 331.168 62.7358C330.44 63.0938 329.594 63.2727 328.628 63.2727ZM338.591 58.2273L338.557 55.7386H338.966L344.693 49.9091H347.182L341.08 56.0795H340.909L338.591 58.2273ZM336.716 63V45.5455H338.727V63H336.716ZM345.034 63L339.92 56.5227L341.352 55.125L347.591 63H345.034Z" fill="black"/>
<path d="M251.534 100H249.42C249.295 99.392 249.077 98.858 248.764 98.3977C248.457 97.9375 248.082 97.5511 247.639 97.2386C247.202 96.9205 246.716 96.6818 246.182 96.5227C245.648 96.3636 245.091 96.2841 244.511 96.2841C243.455 96.2841 242.497 96.5511 241.639 97.0852C240.787 97.6193 240.108 98.4062 239.602 99.446C239.102 100.486 238.852 101.761 238.852 103.273C238.852 104.784 239.102 106.06 239.602 107.099C240.108 108.139 240.787 108.926 241.639 109.46C242.497 109.994 243.455 110.261 244.511 110.261C245.091 110.261 245.648 110.182 246.182 110.023C246.716 109.864 247.202 109.628 247.639 109.315C248.082 108.997 248.457 108.608 248.764 108.148C249.077 107.682 249.295 107.148 249.42 106.545H251.534C251.375 107.437 251.085 108.236 250.665 108.94C250.244 109.645 249.722 110.244 249.097 110.739C248.472 111.227 247.77 111.599 246.991 111.855C246.219 112.111 245.392 112.239 244.511 112.239C243.023 112.239 241.699 111.875 240.54 111.148C239.381 110.42 238.469 109.386 237.804 108.045C237.139 106.705 236.807 105.114 236.807 103.273C236.807 101.432 237.139 99.8409 237.804 98.5C238.469 97.1591 239.381 96.125 240.54 95.3977C241.699 94.6705 243.023 94.3068 244.511 94.3068C245.392 94.3068 246.219 94.4347 246.991 94.6903C247.77 94.946 248.472 95.321 249.097 95.8153C249.722 96.304 250.244 96.9006 250.665 97.6051C251.085 98.304 251.375 99.1023 251.534 100ZM259.995 112.273C258.813 112.273 257.776 111.991 256.884 111.429C255.998 110.866 255.305 110.08 254.805 109.068C254.31 108.057 254.063 106.875 254.063 105.523C254.063 104.159 254.31 102.969 254.805 101.952C255.305 100.935 255.998 100.145 256.884 99.5824C257.776 99.0199 258.813 98.7386 259.995 98.7386C261.177 98.7386 262.211 99.0199 263.097 99.5824C263.989 100.145 264.683 100.935 265.177 101.952C265.677 102.969 265.927 104.159 265.927 105.523C265.927 106.875 265.677 108.057 265.177 109.068C264.683 110.08 263.989 110.866 263.097 111.429C262.211 111.991 261.177 112.273 259.995 112.273ZM259.995 110.466C260.893 110.466 261.631 110.236 262.211 109.776C262.79 109.315 263.219 108.71 263.498 107.96C263.776 107.21 263.915 106.398 263.915 105.523C263.915 104.648 263.776 103.832 263.498 103.077C263.219 102.321 262.79 101.71 262.211 101.244C261.631 100.778 260.893 100.545 259.995 100.545C259.097 100.545 258.359 100.778 257.779 101.244C257.2 101.71 256.771 102.321 256.492 103.077C256.214 103.832 256.075 104.648 256.075 105.523C256.075 106.398 256.214 107.21 256.492 107.96C256.771 108.71 257.2 109.315 257.779 109.776C258.359 110.236 259.097 110.466 259.995 110.466ZM272.849 112.307C272.02 112.307 271.267 112.151 270.591 111.838C269.915 111.52 269.378 111.062 268.98 110.466C268.582 109.864 268.384 109.136 268.384 108.284C268.384 107.534 268.531 106.926 268.827 106.46C269.122 105.989 269.517 105.619 270.011 105.352C270.506 105.085 271.051 104.886 271.648 104.756C272.25 104.619 272.855 104.511 273.463 104.432C274.259 104.33 274.903 104.253 275.398 104.202C275.898 104.145 276.261 104.051 276.489 103.92C276.722 103.79 276.838 103.562 276.838 103.239V103.17C276.838 102.33 276.608 101.676 276.148 101.21C275.693 100.744 275.003 100.511 274.077 100.511C273.116 100.511 272.364 100.722 271.818 101.142C271.273 101.562 270.889 102.011 270.668 102.489L268.759 101.807C269.099 101.011 269.554 100.392 270.122 99.9489C270.696 99.5 271.321 99.1875 271.997 99.0114C272.679 98.8295 273.349 98.7386 274.009 98.7386C274.429 98.7386 274.912 98.7898 275.457 98.892C276.009 98.9886 276.54 99.1903 277.051 99.4972C277.568 99.804 277.997 100.267 278.338 100.886C278.679 101.506 278.849 102.335 278.849 103.375V112H276.838V110.227H276.736C276.599 110.511 276.372 110.815 276.054 111.139C275.736 111.463 275.313 111.739 274.784 111.966C274.256 112.193 273.611 112.307 272.849 112.307ZM273.156 110.5C273.952 110.5 274.622 110.344 275.168 110.031C275.719 109.719 276.134 109.315 276.412 108.821C276.696 108.327 276.838 107.807 276.838 107.261V105.42C276.753 105.523 276.565 105.616 276.276 105.702C275.991 105.781 275.662 105.852 275.287 105.915C274.918 105.972 274.557 106.023 274.205 106.068C273.858 106.108 273.577 106.142 273.361 106.17C272.838 106.239 272.349 106.349 271.895 106.503C271.446 106.651 271.082 106.875 270.804 107.176C270.531 107.472 270.395 107.875 270.395 108.386C270.395 109.085 270.653 109.614 271.17 109.972C271.693 110.324 272.355 110.5 273.156 110.5ZM287.839 112.273C286.612 112.273 285.555 111.983 284.668 111.403C283.782 110.824 283.1 110.026 282.623 109.009C282.146 107.991 281.907 106.83 281.907 105.523C281.907 104.193 282.151 103.02 282.64 102.003C283.134 100.98 283.822 100.182 284.702 99.608C285.589 99.0284 286.623 98.7386 287.805 98.7386C288.725 98.7386 289.555 98.9091 290.293 99.25C291.032 99.5909 291.637 100.068 292.109 100.682C292.58 101.295 292.873 102.011 292.987 102.83H290.975C290.822 102.233 290.481 101.705 289.952 101.244C289.43 100.778 288.725 100.545 287.839 100.545C287.055 100.545 286.367 100.75 285.776 101.159C285.191 101.562 284.734 102.134 284.404 102.872C284.08 103.605 283.918 104.466 283.918 105.455C283.918 106.466 284.077 107.347 284.396 108.097C284.719 108.847 285.174 109.429 285.759 109.844C286.35 110.259 287.043 110.466 287.839 110.466C288.362 110.466 288.836 110.375 289.262 110.193C289.688 110.011 290.049 109.75 290.344 109.409C290.64 109.068 290.85 108.659 290.975 108.182H292.987C292.873 108.955 292.592 109.651 292.143 110.27C291.7 110.884 291.112 111.372 290.379 111.736C289.651 112.094 288.805 112.273 287.839 112.273ZM297.938 104.125V112H295.927V94.5455H297.938V100.955H298.109C298.415 100.278 298.876 99.7415 299.489 99.3438C300.109 98.9403 300.933 98.7386 301.961 98.7386C302.853 98.7386 303.634 98.9176 304.305 99.2756C304.975 99.6278 305.495 100.17 305.864 100.903C306.239 101.631 306.427 102.557 306.427 103.682V112H304.415V103.818C304.415 102.778 304.146 101.974 303.606 101.406C303.072 100.832 302.33 100.545 301.381 100.545C300.722 100.545 300.131 100.685 299.609 100.963C299.092 101.241 298.683 101.648 298.381 102.182C298.086 102.716 297.938 103.364 297.938 104.125ZM310.107 112V98.9091H312.118V112H310.107ZM311.129 96.7273C310.737 96.7273 310.399 96.5938 310.115 96.3267C309.837 96.0597 309.697 95.7386 309.697 95.3636C309.697 94.9886 309.837 94.6676 310.115 94.4006C310.399 94.1335 310.737 94 311.129 94C311.521 94 311.857 94.1335 312.135 94.4006C312.419 94.6676 312.561 94.9886 312.561 95.3636C312.561 95.7386 312.419 96.0597 312.135 96.3267C311.857 96.5938 311.521 96.7273 311.129 96.7273ZM317.813 104.125V112H315.802V98.9091H317.745V100.955H317.915C318.222 100.29 318.688 99.7557 319.313 99.3523C319.938 98.9432 320.745 98.7386 321.734 98.7386C322.62 98.7386 323.396 98.9205 324.06 99.2841C324.725 99.642 325.242 100.188 325.612 100.92C325.981 101.648 326.165 102.568 326.165 103.682V112H324.154V103.818C324.154 102.79 323.887 101.989 323.353 101.415C322.819 100.835 322.086 100.545 321.154 100.545C320.512 100.545 319.938 100.685 319.433 100.963C318.933 101.241 318.538 101.648 318.248 102.182C317.958 102.716 317.813 103.364 317.813 104.125ZM335.125 117.182C334.153 117.182 333.318 117.057 332.619 116.807C331.92 116.562 331.338 116.239 330.872 115.835C330.412 115.438 330.045 115.011 329.773 114.557L331.375 113.432C331.557 113.67 331.787 113.943 332.065 114.25C332.344 114.562 332.724 114.832 333.207 115.06C333.696 115.293 334.335 115.409 335.125 115.409C336.182 115.409 337.054 115.153 337.741 114.642C338.429 114.131 338.773 113.33 338.773 112.239V109.58H338.602C338.455 109.818 338.244 110.114 337.972 110.466C337.705 110.812 337.318 111.122 336.812 111.395C336.312 111.662 335.636 111.795 334.784 111.795C333.727 111.795 332.778 111.545 331.938 111.045C331.102 110.545 330.44 109.818 329.952 108.864C329.469 107.909 329.227 106.75 329.227 105.386C329.227 104.045 329.463 102.878 329.935 101.884C330.406 100.884 331.063 100.111 331.903 99.5653C332.744 99.0142 333.716 98.7386 334.818 98.7386C335.67 98.7386 336.347 98.8807 336.847 99.1648C337.352 99.4432 337.739 99.7614 338.006 100.119C338.278 100.472 338.489 100.761 338.636 100.989H338.841V98.9091H340.784V112.375C340.784 113.5 340.528 114.415 340.017 115.119C339.511 115.83 338.83 116.349 337.972 116.679C337.119 117.014 336.17 117.182 335.125 117.182ZM335.057 109.989C335.864 109.989 336.545 109.804 337.102 109.435C337.659 109.065 338.082 108.534 338.372 107.841C338.662 107.148 338.807 106.318 338.807 105.352C338.807 104.409 338.665 103.577 338.381 102.855C338.097 102.134 337.676 101.568 337.119 101.159C336.563 100.75 335.875 100.545 335.057 100.545C334.205 100.545 333.494 100.761 332.926 101.193C332.364 101.625 331.94 102.205 331.656 102.932C331.378 103.659 331.239 104.466 331.239 105.352C331.239 106.261 331.381 107.065 331.665 107.764C331.955 108.457 332.381 109.003 332.943 109.401C333.511 109.793 334.216 109.989 335.057 109.989Z" fill="black"/>
</svg>
