<svg width="798" height="132" viewBox="0 0 798 132" fill="none" xmlns="http://www.w3.org/2000/svg">
<path opacity="0.2" d="M72.625 63.75L41.5 74.125L10.375 63.75L41.5 53.375L72.625 63.75Z" fill="black"/>
<path d="M73.4355 61.286L42.3105 50.911C41.7824 50.7484 41.2176 50.7484 40.6894 50.911L9.59684 61.286H9.53199L9.20777 61.4481H9.17535L8.85113 61.6426C8.85113 61.675 8.81871 61.675 8.78629 61.7074L8.52691 61.9344L8.29996 62.1938C8.29996 62.2262 8.26754 62.2262 8.26754 62.2586L8.07301 62.5504C8.07301 62.5828 8.07301 62.5828 8.04058 62.6153L7.9109 62.9071L7.81363 63.2637V63.361C7.78165 63.488 7.7707 63.6194 7.78121 63.75V89.6875C7.78121 90.3754 8.05448 91.0352 8.5409 91.5216C9.02732 92.008 9.68705 92.2813 10.375 92.2813C11.0629 92.2813 11.7226 92.008 12.209 91.5216C12.6954 91.0352 12.9687 90.3754 12.9687 89.6875V67.3488L23.8625 70.9801C21.8159 74.256 20.7369 78.0436 20.75 81.9063C20.7512 85.4192 21.6442 88.8743 23.3454 91.9478C25.0466 95.0214 27.5003 97.6127 30.4765 99.4789C24.2917 101.819 19.0117 106.065 15.4004 111.605C15.0323 112.187 14.9075 112.89 15.0531 113.563C15.1986 114.236 15.6028 114.826 16.1785 115.204C16.461 115.391 16.7778 115.52 17.1107 115.584C17.4435 115.648 17.7857 115.645 18.1174 115.575C18.4491 115.506 18.7638 115.372 19.0432 115.18C19.3225 114.988 19.561 114.743 19.7449 114.458C22.0991 110.831 25.3225 107.851 29.122 105.788C32.9214 103.725 37.1764 102.644 41.5 102.644C45.8235 102.644 50.0785 103.725 53.8779 105.788C57.6774 107.851 60.9008 110.831 63.255 114.458C63.4918 114.817 63.8144 115.112 64.1936 115.316C64.5728 115.52 64.9968 115.626 65.4273 115.625C65.9242 115.63 66.4107 115.483 66.8214 115.204C67.3971 114.826 67.8013 114.236 67.9468 113.563C68.0924 112.89 67.9677 112.187 67.5996 111.605C63.9882 106.065 58.7082 101.819 52.5234 99.4789C55.4996 97.6127 57.9533 95.0214 59.6545 91.9478C61.3557 88.8743 62.2488 85.4192 62.25 81.9063C62.263 78.0436 61.1841 74.256 59.1375 70.9801L73.4355 66.2141C73.9544 66.0435 74.4063 65.7135 74.7266 65.271C75.0469 64.8286 75.2194 64.2963 75.2194 63.75C75.2194 63.2038 75.0469 62.6715 74.7266 62.229C74.4063 61.7866 73.9544 61.4565 73.4355 61.286ZM57.0625 81.9063C57.0625 86.0337 55.4228 89.9921 52.5043 92.9106C49.5858 95.8292 45.6274 97.4688 41.5 97.4688C37.3725 97.4688 33.4141 95.8292 30.4956 92.9106C27.5771 89.9921 25.9375 86.0337 25.9375 81.9063C25.9437 78.5854 26.999 75.3514 28.9527 72.666L40.6894 76.5891C41.2159 76.7623 41.784 76.7623 42.3105 76.5891L54.0472 72.666C56.0009 75.3514 57.0562 78.5854 57.0625 81.9063ZM54.0472 67.2192H54.0148L41.5 71.4016L28.9851 67.2192H28.9527L18.5777 63.75L41.5 56.0985L64.4222 63.75L54.0472 67.2192Z" fill="black"/>
<path opacity="0.2" d="M766.625 69.75L735.5 80.125L704.375 69.75L735.5 59.375L766.625 69.75Z" fill="black"/>
<path d="M767.436 67.286L736.311 56.911C735.782 56.7484 735.218 56.7484 734.689 56.911L703.597 67.286H703.532L703.208 67.4481H703.175L702.851 67.6426C702.851 67.675 702.819 67.675 702.786 67.7074L702.527 67.9344L702.3 68.1938C702.3 68.2262 702.268 68.2262 702.268 68.2586L702.073 68.5504C702.073 68.5828 702.073 68.5828 702.041 68.6153L701.911 68.9071L701.814 69.2637V69.361C701.782 69.488 701.771 69.6194 701.781 69.75V95.6875C701.781 96.3754 702.054 97.0352 702.541 97.5216C703.027 98.008 703.687 98.2813 704.375 98.2813C705.063 98.2813 705.723 98.008 706.209 97.5216C706.695 97.0352 706.969 96.3754 706.969 95.6875V73.3488L717.862 76.9801C715.816 80.256 714.737 84.0436 714.75 87.9063C714.751 91.4192 715.644 94.8743 717.345 97.9478C719.047 101.021 721.5 103.613 724.477 105.479C718.292 107.819 713.012 112.065 709.4 117.605C709.032 118.187 708.908 118.89 709.053 119.563C709.199 120.236 709.603 120.826 710.178 121.204C710.461 121.391 710.778 121.52 711.111 121.584C711.443 121.648 711.786 121.645 712.117 121.575C712.449 121.506 712.764 121.372 713.043 121.18C713.323 120.988 713.561 120.743 713.745 120.458C716.099 116.831 719.323 113.851 723.122 111.788C726.921 109.725 731.176 108.644 735.5 108.644C739.824 108.644 744.078 109.725 747.878 111.788C751.677 113.851 754.901 116.831 757.255 120.458C757.492 120.817 757.814 121.112 758.194 121.316C758.573 121.52 758.997 121.626 759.427 121.625C759.924 121.63 760.411 121.483 760.821 121.204C761.397 120.826 761.801 120.236 761.947 119.563C762.092 118.89 761.968 118.187 761.6 117.605C757.988 112.065 752.708 107.819 746.523 105.479C749.5 103.613 751.953 101.021 753.655 97.9478C755.356 94.8743 756.249 91.4192 756.25 87.9063C756.263 84.0436 755.184 80.256 753.137 76.9801L767.436 72.2141C767.954 72.0435 768.406 71.7135 768.727 71.271C769.047 70.8286 769.219 70.2963 769.219 69.75C769.219 69.2038 769.047 68.6715 768.727 68.229C768.406 67.7866 767.954 67.4565 767.436 67.286ZM751.062 87.9063C751.062 92.0337 749.423 95.9921 746.504 98.9106C743.586 101.829 739.627 103.469 735.5 103.469C731.373 103.469 727.414 101.829 724.496 98.9106C721.577 95.9921 719.937 92.0337 719.937 87.9063C719.944 84.5854 720.999 81.3514 722.953 78.666L734.689 82.5891C735.216 82.7623 735.784 82.7623 736.311 82.5891L748.047 78.666C750.001 81.3514 751.056 84.5854 751.062 87.9063ZM748.047 73.2192H748.015L735.5 77.4016L722.985 73.2192H722.953L712.578 69.75L735.5 62.0985L758.422 69.75L748.047 73.2192Z" fill="black"/>
<path d="M88.2114 27.7637C89.0818 25.317 88.9446 22.6247 87.83 20.2792C86.7154 17.9336 84.7147 16.1269 82.268 15.2565C79.8213 14.3861 77.1291 14.5233 74.7835 15.6379C72.4379 16.7525 70.6312 18.7532 69.7608 21.1999C69.5867 21.6892 69.6142 22.2277 69.8371 22.6968C70.06 23.1659 70.4602 23.5272 70.9495 23.7013C71.4388 23.8754 71.9773 23.848 72.4464 23.6251C72.9155 23.4021 73.2768 23.002 73.4509 22.5127C73.8404 21.4179 74.5457 20.4632 75.4778 19.7693C76.4098 19.0755 77.5267 18.6735 78.6871 18.6144C79.8476 18.5553 80.9995 18.8416 81.9973 19.4371C82.995 20.0327 83.7937 20.9107 84.2925 21.9602C84.7912 23.0097 84.9675 24.1835 84.7991 25.3332C84.6307 26.4829 84.1251 27.5569 83.3464 28.4193C82.5676 29.2816 81.5506 29.8937 80.424 30.1781C79.2974 30.4625 78.1117 30.4064 77.017 30.017C76.5276 29.8429 75.9892 29.8703 75.5201 30.0932C75.0509 30.3162 74.6896 30.7163 74.5155 31.2056L73.2028 34.8958C73.0287 35.3851 73.0561 35.9235 73.279 36.3927C73.502 36.8618 73.9021 37.2231 74.3914 37.3972C74.8808 37.5713 75.4192 37.5438 75.8883 37.3209C76.3574 37.098 76.7188 36.6979 76.8929 36.2085L77.6149 34.179C79.8499 34.4949 82.1255 34.0289 84.0565 32.8599C85.9875 31.6909 87.4552 29.8906 88.2114 27.7637Z" fill="black"/>
<path d="M71.7659 44.7781C72.7849 45.1406 73.9049 44.6085 74.2674 43.5895C74.6299 42.5705 74.0977 41.4505 73.0787 41.088C72.0597 40.7255 70.9398 41.2577 70.5773 42.2767C70.2148 43.2957 70.7469 44.4156 71.7659 44.7781Z" fill="black"/>
<path d="M266.074 98.0607C266.66 97.4749 266.66 96.5251 266.074 95.9393L256.528 86.3934C255.942 85.8076 254.993 85.8076 254.407 86.3934C253.821 86.9792 253.821 87.9289 254.407 88.5147L262.892 97L254.407 105.485C253.821 106.071 253.821 107.021 254.407 107.607C254.993 108.192 255.942 108.192 256.528 107.607L266.074 98.0607ZM117 98.5H265.014V95.5H117V98.5Z" fill="black"/>
<path d="M604.074 98.0607C604.66 97.4749 604.66 96.5251 604.074 95.9393L594.528 86.3934C593.942 85.8076 592.993 85.8076 592.407 86.3934C591.821 86.9792 591.821 87.9289 592.407 88.5147L600.892 97L592.407 105.485C591.821 106.071 591.821 107.021 592.407 107.607C592.993 108.192 593.942 108.192 594.528 107.607L604.074 98.0607ZM455 98.5H603.014V95.5H455V98.5Z" fill="black"/>
<path d="M206.333 40.833H175.667C173.558 40.833 171.833 42.558 171.833 44.6663V79.1663L179.5 71.4997H206.333C208.442 71.4997 210.167 69.7747 210.167 67.6663V44.6663C210.167 42.558 208.442 40.833 206.333 40.833ZM206.333 67.6663H177.967L175.667 69.9663V44.6663H206.333V67.6663ZM191.383 47.5413C189.658 47.5413 188.317 47.9247 187.358 48.4997C186.208 49.2663 185.633 50.4163 185.825 51.758H189.658C189.658 51.183 189.85 50.7997 190.233 50.608C190.617 50.4163 191 50.2247 191.575 50.2247C192.15 50.2247 192.725 50.4163 193.108 50.7997C193.492 51.183 193.683 51.5663 193.683 52.1413C193.683 52.7163 193.492 53.0997 193.3 53.483C192.917 53.8663 192.533 54.2497 192.15 54.4413C191.192 55.0163 190.425 55.5913 190.042 55.9747C189.275 56.5497 189.083 57.1247 189.083 58.083H192.917C192.917 57.508 193.108 57.1247 193.108 56.7413C193.3 56.358 193.683 56.1663 194.067 55.783C195.025 55.3997 195.6 54.8247 196.175 54.058C196.75 53.2913 196.942 52.5247 196.942 51.758C196.942 50.4163 196.367 49.2663 195.408 48.4997C194.642 47.9247 193.108 47.5413 191.383 47.5413ZM189.083 59.9997V63.833H192.917V59.9997H189.083Z" fill="black"/>
<path d="M392.585 99.8934C391.056 96.2716 388.838 92.9818 386.052 90.2073C383.276 87.4248 379.987 85.2063 376.366 83.6743C376.334 83.6581 376.302 83.65 376.269 83.6338C381.319 79.9863 384.602 74.045 384.602 67.3418C384.602 56.2373 375.604 47.2402 364.5 47.2402C353.395 47.2402 344.398 56.2373 344.398 67.3418C344.398 74.045 347.681 79.9863 352.731 83.6419C352.698 83.6581 352.666 83.6662 352.634 83.6824C349.002 85.2144 345.744 87.4109 342.948 90.2154C340.165 92.9921 337.946 96.2813 336.415 99.9015C334.91 103.446 334.098 107.245 334.023 111.095C334.021 111.182 334.036 111.268 334.068 111.348C334.1 111.429 334.147 111.502 334.207 111.564C334.268 111.626 334.34 111.675 334.42 111.709C334.5 111.743 334.585 111.76 334.672 111.76H339.535C339.892 111.76 340.175 111.476 340.184 111.128C340.346 104.87 342.858 99.0099 347.3 94.5681C351.896 89.9723 357.999 87.4434 364.5 87.4434C371.001 87.4434 377.104 89.9723 381.7 94.5681C386.142 99.0099 388.654 104.87 388.816 111.128C388.824 111.484 389.108 111.76 389.465 111.76H394.328C394.415 111.76 394.5 111.743 394.58 111.709C394.66 111.675 394.732 111.626 394.792 111.564C394.853 111.502 394.9 111.429 394.932 111.348C394.964 111.268 394.979 111.182 394.977 111.095C394.895 107.221 394.093 103.452 392.585 99.8934ZM364.5 81.2832C360.78 81.2832 357.278 79.8323 354.644 77.198C352.009 74.5638 350.559 71.0622 350.559 67.3418C350.559 63.6214 352.009 60.1198 354.644 57.4855C357.278 54.8513 360.78 53.4004 364.5 53.4004C368.22 53.4004 371.722 54.8513 374.356 57.4855C376.99 60.1198 378.441 63.6214 378.441 67.3418C378.441 71.0622 376.99 74.5638 374.356 77.198C371.722 79.8323 368.22 81.2832 364.5 81.2832Z" fill="black"/>
<path d="M764 40.3836L769.824 49.4932V57.1644L774.059 61L778 62.5L782.529 61L786 57.1644V49.4932L790.5 44.5L791 40.3836V33.6712L788.5 28.5L783 25.5L778 24.5H774.5L769.824 26L764.5 34L764 40.3836Z" fill="#F8E73A" stroke="black"/>
<path d="M777.644 63.3125H778.217C780.622 63.3098 782.927 62.3533 784.627 60.6529C786.328 58.9524 787.284 56.6469 787.287 54.2422V49.5649C789.028 48.167 790.433 46.3957 791.398 44.382C792.363 42.3682 792.863 40.1634 792.861 37.9305C792.861 29.6978 786.163 23 777.931 23C769.698 23 763 29.6978 763 37.9305C762.998 40.1634 763.498 42.3682 764.463 44.382C765.428 46.3958 766.833 48.167 768.574 49.5649V54.2422C768.577 56.6469 769.533 58.9524 771.234 60.6529C772.934 62.3533 775.24 63.3098 777.644 63.3125ZM778.217 60.625H777.644C776.366 60.6234 775.117 60.2384 774.06 59.5198C773.002 58.8011 772.185 57.7819 771.712 56.5938H784.149C783.677 57.7819 782.859 58.8012 781.801 59.5198C780.744 60.2384 779.495 60.6234 778.217 60.625ZM784.6 53.9062H771.262V50.5469H784.6V53.9062ZM765.687 37.9305C765.687 31.1801 771.18 25.6875 777.931 25.6875C784.681 25.6875 790.174 31.1801 790.174 37.9305C790.17 39.857 789.713 41.7556 788.84 43.4732C787.968 45.1908 786.703 46.6792 785.15 47.8186L785.094 47.8594H770.767L770.711 47.8186C769.157 46.6792 767.893 45.1907 767.021 43.4731C766.148 41.7556 765.692 39.857 765.687 37.9305Z" fill="black"/>
</svg>
