<svg width="106" height="110" viewBox="0 0 106 110" fill="none" xmlns="http://www.w3.org/2000/svg">
<path opacity="0.2" d="M72.625 47.75L41.5 58.125L10.375 47.75L41.5 37.375L72.625 47.75Z" fill="black"/>
<path d="M73.4355 45.286L42.3105 34.911C41.7824 34.7484 41.2176 34.7484 40.6894 34.911L9.59684 45.286H9.53199L9.20777 45.4481H9.17535L8.85113 45.6426C8.85113 45.675 8.81871 45.675 8.78629 45.7074L8.52691 45.9344L8.29996 46.1938C8.29996 46.2262 8.26754 46.2262 8.26754 46.2586L8.07301 46.5504C8.07301 46.5828 8.07301 46.5828 8.04058 46.6153L7.9109 46.9071L7.81363 47.2637V47.361C7.78165 47.488 7.7707 47.6194 7.78121 47.75V73.6875C7.78121 74.3754 8.05448 75.0352 8.5409 75.5216C9.02732 76.008 9.68705 76.2813 10.375 76.2813C11.0629 76.2813 11.7226 76.008 12.209 75.5216C12.6954 75.0352 12.9687 74.3754 12.9687 73.6875V51.3488L23.8625 54.9801C21.8159 58.256 20.7369 62.0436 20.75 65.9063C20.7512 69.4192 21.6442 72.8743 23.3454 75.9478C25.0466 79.0214 27.5003 81.6127 30.4765 83.4789C24.2917 85.8186 19.0117 90.0654 15.4004 95.6047C15.0323 96.1868 14.9075 96.8902 15.0531 97.5633C15.1986 98.2365 15.6028 98.8255 16.1785 99.2035C16.461 99.3907 16.7778 99.52 17.1107 99.5838C17.4435 99.6477 17.7857 99.6448 18.1174 99.5755C18.4491 99.5061 18.7638 99.3716 19.0432 99.1798C19.3225 98.9879 19.561 98.7425 19.7449 98.4578C22.0991 94.8315 25.3225 91.8511 29.122 89.7878C32.9214 87.7245 37.1764 86.6437 41.5 86.6437C45.8235 86.6437 50.0785 87.7245 53.8779 89.7878C57.6774 91.8511 60.9008 94.8315 63.255 98.4578C63.4918 98.8174 63.8144 99.1123 64.1936 99.3161C64.5728 99.5199 64.9968 99.626 65.4273 99.625C65.9242 99.6303 66.4107 99.4832 66.8214 99.2035C67.3971 98.8255 67.8013 98.2365 67.9468 97.5633C68.0924 96.8902 67.9677 96.1868 67.5996 95.6047C63.9882 90.0654 58.7082 85.8186 52.5234 83.4789C55.4996 81.6127 57.9533 79.0214 59.6545 75.9478C61.3557 72.8743 62.2488 69.4192 62.25 65.9063C62.263 62.0436 61.1841 58.256 59.1375 54.9801L73.4355 50.2141C73.9544 50.0435 74.4063 49.7135 74.7266 49.271C75.0469 48.8286 75.2194 48.2963 75.2194 47.75C75.2194 47.2038 75.0469 46.6715 74.7266 46.229C74.4063 45.7866 73.9544 45.4565 73.4355 45.286ZM57.0625 65.9063C57.0625 70.0337 55.4228 73.9921 52.5043 76.9106C49.5858 79.8292 45.6274 81.4688 41.5 81.4688C37.3725 81.4688 33.4141 79.8292 30.4956 76.9106C27.5771 73.9921 25.9375 70.0337 25.9375 65.9063C25.9437 62.5854 26.999 59.3514 28.9527 56.666L40.6894 60.5891C41.2159 60.7623 41.784 60.7623 42.3105 60.5891L54.0472 56.666C56.0009 59.3514 57.0562 62.5854 57.0625 65.9063ZM54.0472 51.2192H54.0148L41.5 55.4016L28.9851 51.2192H28.9527L18.5777 47.75L41.5 40.0985L64.4222 47.75L54.0472 51.2192Z" fill="black"/>
<path d="M72 19.3836L77.8235 28.4932V36.1644L82.0588 40L86 41.5L90.5294 40L94 36.1644V28.4932L98.5 23.5L99 19.3836V12.6712L96.5 7.5L91 4.5L86 3.5H82.5L77.8235 5L72.5 13L72 19.3836Z" fill="#F8E73A" stroke="black"/>
<path d="M85.6444 42.3125H86.2168C88.6216 42.3098 90.9271 41.3533 92.6275 39.6529C94.3279 37.9524 95.2844 35.6469 95.2871 33.2422V28.5649C97.0283 27.167 98.4332 25.3957 99.398 23.382C100.363 21.3682 100.863 19.1634 100.861 16.9305C100.861 8.69784 94.1633 2 85.9306 2C77.6978 2 71 8.69784 71 16.9305C70.9983 19.1634 71.4983 21.3682 72.4631 23.382C73.4279 25.3958 74.8329 27.167 76.5741 28.5649V33.2422C76.5768 35.6469 77.5333 37.9524 79.2337 39.6529C80.9341 41.3533 83.2396 42.3098 85.6444 42.3125ZM86.2168 39.625H85.6444C84.3658 39.6234 83.1172 39.2384 82.0597 38.5198C81.0022 37.8011 80.1846 36.7819 79.7125 35.5938H92.1488C91.6766 36.7819 90.8589 37.8012 89.8015 38.5198C88.744 39.2384 87.4953 39.6234 86.2168 39.625ZM92.5996 32.9062H79.2616V29.5469H92.5996V32.9062ZM73.6875 16.9305C73.6875 10.1801 79.1797 4.6875 85.9306 4.6875C92.6814 4.6875 98.1736 10.1801 98.1736 16.9305C98.1695 18.857 97.7128 20.7556 96.8401 22.4732C95.9675 24.1908 94.7035 25.6792 93.15 26.8186L93.0944 26.8594H78.7667L78.7109 26.8186C77.1574 25.6792 75.8934 24.1907 75.0209 22.4731C74.1483 20.7556 73.6916 18.857 73.6875 16.9305Z" fill="black"/>
</svg>
